<svg xmlns="http://www.w3.org/2000/svg" version="1.1" xmlns:xlink="http://www.w3.org/1999/xlink" xmlns:svgjs="http://svgjs.dev/svgjs" width="1080" height="1080"><svg xmlns="http://www.w3.org/2000/svg" xmlns:xlink="http://www.w3.org/1999/xlink" width="1080" zoomAndPan="magnify" viewBox="0 0 810 809.999993" height="1080" preserveAspectRatio="xMidYMid meet" version="1.0"><defs><g></g></defs><g fill="#a9c8b0" fill-opacity="1"><g transform="translate(11.855396, 607.531031)"><g><path d="M 595.25 -566.90625 L 595.25 -453.546875 L 141.734375 -453.546875 L 141.734375 -340.15625 L 595.25 -340.15625 L 595.25 -226.765625 L 141.734375 -226.765625 L 141.734375 0 L 28.34375 0 L 28.34375 -453.546875 C 28.34375 -474.328125 33.421875 -493.335938 43.578125 -510.578125 C 53.734375 -527.816406 67.429688 -541.515625 84.671875 -551.671875 C 101.921875 -561.828125 120.941406 -566.90625 141.734375 -566.90625 Z M 595.25 -566.90625 "></path></g></g></g><g fill="#1ed760" fill-opacity="1"><g transform="translate(-19.462872, 576.212768)"><g><path d="M 595.25 -566.90625 L 595.25 -453.546875 L 141.734375 -453.546875 L 141.734375 -340.15625 L 595.25 -340.15625 L 595.25 -226.765625 L 141.734375 -226.765625 L 141.734375 0 L 28.34375 0 L 28.34375 -453.546875 C 28.34375 -474.328125 33.421875 -493.335938 43.578125 -510.578125 C 53.734375 -527.816406 67.429688 -541.515625 84.671875 -551.671875 C 101.921875 -561.828125 120.941406 -566.90625 141.734375 -566.90625 Z M 595.25 -566.90625 "></path></g></g></g><g fill="#a9c8b0" fill-opacity="1"><g transform="translate(798.134121, 202.457083)"><g><path d="M -595.25 566.90625 L -595.25 453.546875 L -141.734375 453.546875 L -141.734375 340.15625 L -595.25 340.15625 L -595.25 226.765625 L -141.734375 226.765625 L -141.734375 0 L -28.34375 0 L -28.34375 453.546875 C -28.34375 474.328125 -33.421875 493.335938 -43.578125 510.578125 C -53.734375 527.816406 -67.429688 541.515625 -84.671875 551.671875 C -101.921875 561.828125 -120.941406 566.90625 -141.734375 566.90625 Z M -595.25 566.90625 "></path></g></g></g><g fill="#1ed760" fill-opacity="1"><g transform="translate(829.452344, 233.77533)"><g><path d="M -595.25 566.90625 L -595.25 453.546875 L -141.734375 453.546875 L -141.734375 340.15625 L -595.25 340.15625 L -595.25 226.765625 L -141.734375 226.765625 L -141.734375 0 L -28.34375 0 L -28.34375 453.546875 C -28.34375 474.328125 -33.421875 493.335938 -43.578125 510.578125 C -53.734375 527.816406 -67.429688 541.515625 -84.671875 551.671875 C -101.921875 561.828125 -120.941406 566.90625 -141.734375 566.90625 Z M -595.25 566.90625 "></path></g></g></g></svg><style>@media (prefers-color-scheme: light) { :root { filter: contrast(1) brightness(1); } }
@media (prefers-color-scheme: dark) { :root { filter: none; } }
</style></svg>